<svg width="323" height="323" viewBox="0 0 323 323" fill="none" xmlns="http://www.w3.org/2000/svg">
<g clip-path="url(#clip0)">
<path d="M322.043 160.706V14.2064C322.043 6.30637 315.743 0.00641424 308.343 0.00641424H161.243C142.343 -0.493586 142.343 28.4064 161.243 27.8064H294.143V160.706C294.143 168.606 300.443 175.406 308.343 174.906C316.243 174.906 322.543 168.606 322.043 160.706Z" fill="white"/>
<path d="M160.743 294.307H27.843V161.407C28.443 153.407 21.543 147.107 13.743 147.107C6.34297 147.107 0.0429688 153.407 0.0429688 161.307V308.407C0.0429688 315.807 6.34297 322.107 14.243 322.107H160.743C179.643 322.606 179.643 294.307 160.743 294.307Z" fill="white"/>
<path d="M209.642 98.2064C205.942 98.2064 202.842 99.8064 200.142 102.406L102.442 200.106C88.7423 213.206 108.742 233.706 121.842 219.506L220.042 121.806C229.042 112.906 222.742 97.7064 209.642 98.2064Z" fill="white"/>
</g>
<defs>
<clipPath id="clip0">
<rect width="322.113" height="322.113" fill="white"/>
</clipPath>
</defs>
</svg>
